<svg width="15" height="16" viewBox="0 0 15 16" fill="none" xmlns="http://www.w3.org/2000/svg">
<path d="M4.58323 4.66683C4.58323 5.08104 4.91902 5.41683 5.33323 5.41683C5.74745 5.41683 6.08323 5.08104 6.08323 4.66683H4.58323ZM6.08323 11.3335C6.08323 10.9193 5.74745 10.5835 5.33323 10.5835C4.91902 10.5835 4.58323 10.9193 4.58323 11.3335H6.08323ZM6.06124 14.5215L6.40174 13.8533L6.40174 13.8532L6.06124 14.5215ZM5.47856 13.9388L4.8103 14.2793L4.8103 14.2793L5.47856 13.9388ZM13.1879 13.9388L13.8562 14.2793V14.2793L13.1879 13.9388ZM12.6052 14.5215L12.2647 13.8532L12.2647 13.8533L12.6052 14.5215ZM12.6052 1.47882L12.2647 2.14708V2.14708L12.6052 1.47882ZM13.1879 2.06151L12.5197 2.402V2.402L13.1879 2.06151ZM5.47856 2.06151L4.8103 1.72102L4.8103 1.72102L5.47856 2.06151ZM6.06124 1.47882L5.72075 0.810566V0.810566L6.06124 1.47882ZM1.9999 7.25016C1.58568 7.25016 1.2499 7.58595 1.2499 8.00016C1.2499 8.41438 1.58568 8.75016 1.9999 8.75016L1.9999 7.25016ZM9.33323 8.75016C9.74744 8.75016 10.0832 8.41438 10.0832 8.00016C10.0832 7.58595 9.74745 7.25016 9.33323 7.25016L9.33323 8.75016ZM3.86356 6.53049C4.15645 6.2376 4.15645 5.76273 3.86356 5.46983C3.57067 5.17694 3.09579 5.17694 2.8029 5.46983L3.86356 6.53049ZM2.08748 7.24591L1.55715 6.71558L1.55715 6.71558L2.08748 7.24591ZM2.08748 8.75441L1.55715 9.28474L1.55715 9.28474L2.08748 8.75441ZM2.8029 10.5305C3.0958 10.8234 3.57067 10.8234 3.86356 10.5305C4.15646 10.2376 4.15646 9.76273 3.86356 9.46983L2.8029 10.5305ZM1.642 7.79415L2.3553 8.02591L2.3553 8.02591L1.642 7.79415ZM1.642 8.20617L2.3553 7.97441L1.642 8.20617ZM6.08323 4.66683V3.46683H4.58323V4.66683H6.08323ZM7.46656 2.0835H11.1999V0.583496H7.46656V2.0835ZM12.5832 3.46683V12.5335H14.0832V3.46683H12.5832ZM11.1999 13.9168H7.46656V15.4168H11.1999V13.9168ZM6.08323 12.5335V11.3335H4.58323V12.5335H6.08323ZM7.46656 13.9168C7.08082 13.9168 6.83662 13.9162 6.65191 13.9012C6.47595 13.8868 6.42099 13.8631 6.40174 13.8533L5.72075 15.1898C5.98671 15.3253 6.26104 15.3742 6.52976 15.3962C6.78972 15.4174 7.10557 15.4168 7.46656 15.4168V13.9168ZM4.58323 12.5335C4.58323 12.8945 4.58265 13.2103 4.60389 13.4703C4.62584 13.739 4.67479 14.0134 4.8103 14.2793L6.14681 13.5983C6.137 13.5791 6.11328 13.5241 6.09891 13.3482C6.08381 13.1634 6.08323 12.9192 6.08323 12.5335H4.58323ZM6.40174 13.8532C6.29198 13.7973 6.20274 13.7081 6.14681 13.5983L4.8103 14.2793C5.01004 14.6713 5.32875 14.99 5.72075 15.1898L6.40174 13.8532ZM12.5832 12.5335C12.5832 12.9192 12.5826 13.1634 12.5676 13.3482C12.5532 13.5241 12.5295 13.5791 12.5197 13.5983L13.8562 14.2793C13.9917 14.0134 14.0406 13.739 14.0626 13.4703C14.0838 13.2103 14.0832 12.8945 14.0832 12.5335H12.5832ZM11.1999 15.4168C11.5609 15.4168 11.8767 15.4174 12.1367 15.3962C12.4054 15.3742 12.6798 15.3253 12.9457 15.1898L12.2647 13.8533C12.2455 13.8631 12.1905 13.8868 12.0146 13.9012C11.8298 13.9162 11.5856 13.9168 11.1999 13.9168V15.4168ZM12.5197 13.5983C12.4637 13.7081 12.3745 13.7973 12.2647 13.8532L12.9457 15.1898C13.3377 14.99 13.6564 14.6713 13.8562 14.2793L12.5197 13.5983ZM11.1999 2.0835C11.5856 2.0835 11.8298 2.08408 12.0146 2.09917C12.1905 2.11355 12.2455 2.13726 12.2647 2.14708L12.9457 0.810566C12.6798 0.675053 12.4054 0.626108 12.1367 0.604153C11.8767 0.582913 11.5609 0.583496 11.1999 0.583496V2.0835ZM14.0832 3.46683C14.0832 3.10584 14.0838 2.78999 14.0626 2.53002C14.0406 2.26131 13.9917 1.98697 13.8562 1.72102L12.5197 2.402C12.5295 2.42126 12.5532 2.47622 12.5676 2.65217C12.5826 2.83688 12.5832 3.08109 12.5832 3.46683H14.0832ZM12.2647 2.14708C12.3745 2.203 12.4637 2.29224 12.5197 2.402L13.8562 1.72102C13.6564 1.32901 13.3377 1.0103 12.9457 0.810566L12.2647 2.14708ZM6.08323 3.46683C6.08323 3.08109 6.08381 2.83688 6.09891 2.65217C6.11328 2.47622 6.137 2.42126 6.14681 2.402L4.8103 1.72102C4.67479 1.98697 4.62584 2.26131 4.60389 2.53002C4.58265 2.78999 4.58323 3.10584 4.58323 3.46683H6.08323ZM7.46656 0.583496C7.10557 0.583496 6.78972 0.582913 6.52976 0.604153C6.26104 0.626108 5.98671 0.675053 5.72075 0.810566L6.40174 2.14708C6.42099 2.13726 6.47595 2.11355 6.65191 2.09917C6.83662 2.08408 7.08082 2.0835 7.46656 2.0835V0.583496ZM6.14681 2.402C6.20274 2.29224 6.29198 2.203 6.40174 2.14708L5.72075 0.810566C5.32875 1.0103 5.01004 1.32901 4.8103 1.72102L6.14681 2.402ZM1.9999 8.75016L9.33323 8.75016L9.33323 7.25016L1.9999 7.25016L1.9999 8.75016ZM2.8029 5.46983L1.55715 6.71558L2.61781 7.77624L3.86356 6.53049L2.8029 5.46983ZM1.55715 9.28474L2.8029 10.5305L3.86356 9.46983L2.61781 8.22408L1.55715 9.28474ZM1.55715 6.71558C1.43389 6.83884 1.30915 6.96276 1.21253 7.07657C1.11023 7.19708 0.996221 7.35461 0.928712 7.56239L2.3553 8.02591C2.33725 8.08147 2.31397 8.09689 2.35604 8.04734C2.40379 7.99109 2.47705 7.917 2.61781 7.77624L1.55715 6.71558ZM2.61781 8.22408C2.47706 8.08333 2.4038 8.00924 2.35604 7.95299C2.31397 7.90343 2.33724 7.91885 2.3553 7.97441L0.928711 8.43794C0.996221 8.64571 1.11023 8.80325 1.21253 8.92375C1.30915 9.03756 1.43389 9.16148 1.55715 9.28474L2.61781 8.22408ZM0.928712 7.56239C0.836263 7.84692 0.836263 8.15341 0.928711 8.43794L2.3553 7.97441C2.36073 7.99115 2.36073 8.00918 2.3553 8.02591L0.928712 7.56239Z" fill="#111111"/>
</svg>
