<svg width="16" height="16" viewBox="0 0 16 16" fill="none" xmlns="http://www.w3.org/2000/svg">
<path d="M5.99989 2.5057C5.99989 1.85831 6.52471 1.3335 7.17209 1.3335H8.82769C9.47508 1.3335 9.99989 1.85831 9.99989 2.5057C9.99989 3.40807 10.9768 3.97204 11.7582 3.52085C12.3189 3.19715 13.0358 3.38924 13.3595 3.94991L14.1873 5.38366C14.511 5.94433 14.3189 6.66125 13.7582 6.98494C12.9768 7.43613 12.9768 8.5641 13.7582 9.01529C14.3189 9.33899 14.511 10.0559 14.1873 10.6166L13.3595 12.0503C13.0358 12.611 12.3189 12.8031 11.7582 12.4794C10.9767 12.0282 9.99989 12.5922 9.99989 13.4946C9.99989 14.142 9.47506 14.6668 8.82765 14.6668H7.17213C6.52472 14.6668 5.99989 14.142 5.99989 13.4946C5.99989 12.5922 5.02305 12.0282 4.24157 12.4794C3.68091 12.8031 2.964 12.611 2.6403 12.0503L1.81252 10.6166C1.48882 10.0559 1.68092 9.33899 2.24158 9.01529C3.02306 8.5641 3.02306 7.43613 2.24158 6.98494C1.68092 6.66124 1.48882 5.94433 1.81252 5.38366L2.6403 3.9499C2.964 3.38924 3.68092 3.19715 4.24158 3.52084C5.02305 3.97202 5.99989 3.40806 5.99989 2.5057Z" stroke="#27272A" stroke-width="1.5"/>
<path d="M10.6666 8.00016C10.6666 9.47292 9.47265 10.6668 7.99989 10.6668C6.52713 10.6668 5.33323 9.47292 5.33323 8.00016C5.33323 6.5274 6.52713 5.3335 7.99989 5.3335C9.47265 5.3335 10.6666 6.5274 10.6666 8.00016Z" stroke="#27272A" stroke-width="1.5"/>
</svg>
