<svg xmlns="http://www.w3.org/2000/svg" width="36" height="36" viewBox="0 0 36 36" fill="none">
    <path d="M18.5626 17.4371L18.5626 18.5621M17.4376 17.4371V18.5621M18.5626 6.93713L18.5626 8.06213M17.4376 6.93713V8.06213M18.5626 27.9371L18.5626 29.0621M17.4376 27.9371V29.0621M18 19.5C17.1716 19.5 16.5 18.8284 16.5 18C16.5 17.1716 17.1716 16.5 18 16.5C18.8284 16.5 19.5 17.1716 19.5 18C19.5 18.8284 18.8284 19.5 18 19.5ZM18 9C17.1716 9 16.5 8.32843 16.5 7.5C16.5 6.67157 17.1716 6 18 6C18.8284 6 19.5 6.67157 19.5 7.5C19.5 8.32843 18.8284 9 18 9ZM18 30C17.1716 30 16.5 29.3284 16.5 28.5C16.5 27.6716 17.1716 27 18 27C18.8284 27 19.5 27.6716 19.5 28.5C19.5 29.3284 18.8284 30 18 30Z" stroke="white" stroke-width="1.5" stroke-linecap="round"/>
</svg>