<svg width="416" height="235" viewBox="0 0 416 235" fill="none" xmlns="http://www.w3.org/2000/svg">
<g filter="url(#filter0_d_29_29)">
<mask id="path-1-inside-1_29_29" fill="white">
<rect x="4" width="408" height="177.533" rx="2"/>
</mask>
<rect x="4" width="408" height="177.533" rx="2" fill="white"/>
<rect x="4" width="408" height="177.533" rx="2" stroke="black" stroke-width="20" mask="url(#path-1-inside-1_29_29)"/>
</g>
<line x1="4" y1="102.751" x2="412" y2="102.751" stroke="black" stroke-width="10"/>
<line x1="4" y1="118.144" x2="412" y2="118.144" stroke="black" stroke-width="10"/>
<path d="M44.5 182.533C56.7218 182.533 66.9999 192.949 67 206.266C67 219.583 56.7219 230 44.5 230C32.2781 230 22 219.583 22 206.266C22.0001 192.949 32.2782 182.533 44.5 182.533Z" fill="white" stroke="black" stroke-width="10"/>
<line y1="-5" x2="50.2231" y2="-5" transform="matrix(0.756624 -0.653851 0.634359 0.773039 29 225.838)" stroke="black" stroke-width="10"/>
<line y1="-5" x2="50.4927" y2="-5" transform="matrix(-0.604815 -0.796366 0.780949 -0.624594 63.5388 223.21)" stroke="black" stroke-width="10"/>
<path d="M367.5 182C379.722 182 390 192.417 390 205.733C390 219.05 379.722 229.467 367.5 229.467C355.278 229.467 345 219.05 345 205.733C345 192.417 355.278 182 367.5 182Z" fill="white" stroke="black" stroke-width="10"/>
<line y1="-5" x2="50.2231" y2="-5" transform="matrix(0.756624 -0.653851 0.634359 0.773039 352 225.306)" stroke="black" stroke-width="10"/>
<line y1="-5" x2="50.4927" y2="-5" transform="matrix(-0.604815 -0.796366 0.780949 -0.624594 386.539 222.678)" stroke="black" stroke-width="10"/>
<line x1="65" y1="107.756" x2="65" y2="-0.000114441" stroke="black" stroke-width="10"/>
<line x1="362.5" y1="107.759" x2="362.5" y2="0.00281525" stroke="black" stroke-width="10"/>
<line x1="260.5" y1="107.759" x2="260.5" y2="0.00281525" stroke="black" stroke-width="10"/>
<line x1="162.5" y1="107.759" x2="162.5" y2="0.00281525" stroke="black" stroke-width="10"/>
<defs>
<filter id="filter0_d_29_29" x="0" y="0" width="416" height="185.533" filterUnits="userSpaceOnUse" color-interpolation-filters="sRGB">
<feFlood flood-opacity="0" result="BackgroundImageFix"/>
<feColorMatrix in="SourceAlpha" type="matrix" values="0 0 0 0 0 0 0 0 0 0 0 0 0 0 0 0 0 0 127 0" result="hardAlpha"/>
<feOffset dy="4"/>
<feGaussianBlur stdDeviation="2"/>
<feComposite in2="hardAlpha" operator="out"/>
<feColorMatrix type="matrix" values="0 0 0 0 0 0 0 0 0 0 0 0 0 0 0 0 0 0 0.25 0"/>
<feBlend mode="normal" in2="BackgroundImageFix" result="effect1_dropShadow_29_29"/>
<feBlend mode="normal" in="SourceGraphic" in2="effect1_dropShadow_29_29" result="shape"/>
</filter>
</defs>
</svg>
